<?xml version="1.0" encoding="UTF-8"?>
<svg xmlns="http://www.w3.org/2000/svg" viewBox="0 0 1002 602" width="1002" height="602">
  <defs>
    <clipPath id="cp1">
      <path d="M0 0L1002 0L1002 602L0 602Z"></path>
    </clipPath>
  </defs>
  <style> tspan { white-space:pre } .shp0 { fill: #595b61 } .shp1 { fill: #1b71be } </style>
  <g id="Page 1" clip-path="url(#cp1)">
    <path id="Path 1" fill-rule="evenodd" class="shp0" d="M67.99 559.26L122.81 559.26L122.81 572.06L54.38 572.06L54.38 466.53L120.54 466.53L120.54 479.27L67.99 479.27L67.99 511.18L117.25 511.18L117.25 523.96L67.99 523.96L67.99 559.26ZM282.89 466.53L296.54 466.53L296.54 572.06L281.18 572.06L280.56 571.16L222.37 487.45L222.37 572.06L208.76 572.06L208.76 466.53L224.12 466.53L224.74 467.43L282.89 551.07L282.89 466.53ZM396.09 559.26L450.92 559.26L450.92 572.06L382.48 572.06L382.48 466.53L448.65 466.53L448.65 479.27L396.09 479.27L396.09 511.18L445.35 511.18L445.35 523.96L396.09 523.96L396.09 559.26ZM586.96 522.82L616.78 572.06L601.14 572.06L572.68 523.96L558.34 523.96L558.34 572.06L544.72 572.06L544.72 466.53L573.41 466.53C574.47 466.53 575.81 466.56 577.46 466.61L578.93 466.66C581.31 466.76 583.91 467.07 586.67 467.56C589.38 468.03 592.25 468.85 595.2 469.96C598.13 471.03 600.85 472.71 603.3 474.93C605.71 477.15 607.71 479.93 609.22 483.19C610.79 486.49 611.59 490.54 611.59 495.22C611.59 500.46 610.69 504.72 608.83 508.25C606.99 511.67 604.69 514.48 601.96 516.57C599.22 518.67 596.18 520.27 592.92 521.27C590.86 521.92 588.87 522.44 586.96 522.82ZM597.98 495.22C597.98 493.75 597.68 492.04 597.11 490.11C596.59 488.33 595.56 486.65 594.08 485.08C592.54 483.45 590.42 482.13 587.61 481C584.74 479.86 580.94 479.27 576.29 479.27L558.34 479.27L558.34 511.18L576.29 511.18C580.97 511.18 584.77 510.6 587.6 509.45C590.36 508.37 592.53 507 594.08 505.39C595.56 503.84 596.59 502.16 597.11 500.36C597.68 498.42 597.98 496.69 597.98 495.22ZM754.02 513.2L791.97 513.2L791.97 564.59L790.91 565.17C784.8 568.63 778.42 571.1 771.93 572.5C765.42 573.9 758.74 574.6 752.1 574.6C744.13 574.6 736.71 573.23 730.06 570.54C723.37 567.8 717.58 563.93 712.81 559.04C708.08 554.11 704.31 548.2 701.63 541.44C698.97 534.75 697.64 527.29 697.64 519.28C697.64 511.3 698.97 503.85 701.63 497.18C704.33 490.47 708.08 484.58 712.81 479.68C717.61 474.75 723.41 470.85 730.05 468.11C736.74 465.34 744.17 463.93 752.1 463.93C767.67 463.93 780.46 468.86 790.09 478.6L791.53 480.06L781.66 490.36L780.15 488.56C778.77 486.93 777 485.33 774.88 483.85C772.73 482.34 770.41 481.07 767.98 480.07C765.4 478.96 762.84 478.16 760.13 477.61C751.07 475.55 742.27 476.87 735.11 479.97C730.13 482.13 725.81 485.15 722.3 488.92C718.82 492.66 716.06 497.2 714.12 502.42C712.21 507.59 711.25 513.27 711.25 519.28C711.25 525.27 712.21 530.95 714.12 536.17C716.05 541.33 718.8 545.86 722.3 549.63C725.81 553.39 730.13 556.41 735.12 558.6C740.12 560.75 745.83 561.84 752.1 561.84C757.39 561.84 762.41 561.42 767.08 560.6C771.16 559.87 774.95 558.56 778.36 556.7L778.36 525.97L754.02 525.97L754.02 513.2ZM954.63 466.53L915.67 526.92L915.67 572.06L902.06 572.06L902.06 526.92L863.08 466.53L879.35 466.53L879.98 467.49L908.86 512.85L939.07 466.53L954.63 466.53ZM571.7 390.95C555.86 401.18 536.63 409.16 514.58 414.68C492.55 420.23 469.34 423.03 445.58 423.03L333.24 423.02C331.07 423.02 329.26 421.35 329.08 419.18L328.86 416.62L328.85 122.25C328.85 119.95 330.73 118.08 333.03 118.08L375.75 118.08C378.06 118.08 379.93 119.94 379.93 122.25L380.13 375.52L427.79 375.52C435.83 375.52 445.05 375.34 456.02 375C466.39 374.66 477.12 373.58 487.91 371.79C498.76 370.01 509.93 367.1 521.11 363.19C531.98 359.35 542.7 353.65 552.95 346.26C558.08 342.03 564.11 336.14 570.71 328.92C577.12 321.84 583.26 313.32 588.95 303.6C594.55 294.03 599.38 282.72 603.32 269.94C607.17 257.42 609.11 243.23 609.11 227.7C609.11 203.79 603.56 181.16 592.64 160.46C581.63 139.64 566.58 122.21 547.88 108.63C540.19 103.71 531.85 99.32 523.26 95.68C514.97 92.14 505.95 89.27 496.45 87.13C487.08 85.01 476.6 83.44 465.31 82.43C453.96 81.45 441.33 80.95 427.79 80.95L164.42 80.95C156.03 81.32 148.42 82.92 141.96 85.75C134.35 89.07 127.92 93.55 122.86 99.03C117.72 104.61 113.72 110.96 110.96 117.91C108.26 124.83 106.88 132 106.88 139.2C106.88 149.32 108.92 157.62 112.92 163.87C117.08 170.37 122.86 175.97 130.14 180.52C137.76 185.24 146.85 189.33 157.14 192.71C167.96 196.24 179.48 199.7 191.36 202.98C214.88 209.23 233.57 218.21 246.85 229.65C260.02 240.99 269.8 252.79 275.92 264.75C282.02 276.78 285.66 287.94 286.77 297.93C287.87 307.94 288.34 313.85 288.34 317.08C288.34 332.75 285.34 347.76 279.43 361.72C273.5 375.59 265.16 388.04 254.62 398.7C244.04 409.37 231.28 418.02 216.69 424.39C201.95 430.79 185.66 434.03 168.27 434.03C155.46 434.03 141.89 431.99 127.99 427.96C113.79 423.83 100.57 417.06 88.65 407.84C76.61 398.58 66.42 386.31 58.36 371.39C50.23 356.21 45.96 337.66 45.62 316.21L45.6 313.59C45.6 312.46 46.02 311.4 46.81 310.61C47.59 309.82 48.67 309.37 49.78 309.37L92.44 309.37C94.68 309.37 96.52 311.14 96.62 313.39L96.72 315.84C97.63 337.58 104.48 355.02 117.1 367.72C129.64 380.32 146.85 386.7 168.27 386.7C177.18 386.7 185.93 385.07 194.3 381.84C202.59 378.64 209.97 374 216.24 368.06C222.57 362.07 227.72 354.86 231.54 346.63C235.35 338.39 237.27 329.14 237.27 319.13C237.27 306.14 234.4 295.35 228.75 287.06C222.84 278.43 215.76 271.28 207.72 265.83C199.39 260.31 190.72 256.07 181.96 253.28C172.46 250.24 164.55 247.73 158.08 245.71C149.73 243.39 139.72 240.3 128.51 236.55C116.89 232.73 105.53 227.02 94.77 219.54C83.86 211.94 74.57 201.8 67.16 189.45C59.62 176.78 55.78 160.4 55.78 140.71C55.78 125.39 58.71 110.94 64.48 97.81C70.21 84.8 78.26 73.36 88.42 63.81C98.46 54.31 110.47 46.8 124.12 41.48C136.26 36.69 149.56 34.04 163.66 33.58C163.84 33.55 164.04 33.53 164.24 33.52L166.8 33.4L445.58 33.4C469.4 33.4 492.63 36.21 514.6 41.74C536.74 47.33 555.97 55.32 571.72 65.47C588.81 75.95 603.22 88.42 614.51 102.51C625.68 116.46 634.77 131.05 641.54 145.89C648.28 160.58 653.16 175.46 656.03 190.08C658.81 204.54 660.21 217.72 660.21 229.26C660.21 238.38 659.05 249.79 656.78 263.14C654.52 276.59 650.19 290.95 643.94 305.8C637.52 320.86 628.5 335.91 617.11 350.54C605.55 365.44 590.28 379.03 571.7 390.95Z"></path>
    <path id="Path 2" class="shp1" d="M911.01 69.8L916.2 61.02C916.78 60.07 916.94 58.93 916.66 57.85L909.86 31.63C909.58 30.53 908.88 29.62 907.9 29.06C906.95 28.51 905.84 28.34 904.71 28.64L878.42 35.79C877.96 35.92 877.15 36.37 876.76 36.65C876.27 36.99 875.86 37.44 875.55 37.94L873.72 41.01C873.62 41.17 873.54 41.34 873.48 41.5L790.75 178.25L779.24 160.74C778.46 159.53 776.77 158.58 775.65 158.86C774.2 158.89 772.88 159.68 772.16 160.92L619.34 419.88C618.58 421.17 618.56 422.77 619.31 424.08C620.05 425.38 621.43 426.18 622.93 426.18L667.49 426.18C668.98 426.18 670.35 425.4 671.1 424.13L779.17 239.9L791.07 258.14C791.86 259.34 793.29 259.84 794.65 260.04C796.08 260 797.4 259.24 798.16 258.01L910.75 70.35C910.85 70.18 910.95 69.99 911.01 69.8Z"></path>
    <path id="Path 3" class="shp0" d="M953.91 419.67L837.65 247.66L812.38 289.35L903.83 424.35C904.62 425.5 905.91 426.18 907.29 426.18L950.45 426.18C952 426.18 953.42 425.34 954.13 423.96C954.87 422.59 954.77 420.94 953.91 419.67ZM758 129.79L692.74 33.27C691.96 32.11 690.67 31.43 689.28 31.43L645.96 31.43C644.41 31.43 642.99 32.28 642.27 33.65C641.54 35 641.64 36.67 642.5 37.94L732.71 171.52L758 129.79Z"></path>
  </g>
</svg>
